<?xml version="1.0" encoding="utf-8"?>
<!-- Generator: Adobe Illustrator 24.3.0, SVG Export Plug-In . SVG Version: 6.00 Build 0)  -->
<svg version="1.0"
	 id="svg967" xmlns:inkscape="http://www.inkscape.org/namespaces/inkscape" xmlns:sodipodi="http://sodipodi.sourceforge.net/DTD/sodipodi-0.dtd" xmlns:svg="http://www.w3.org/2000/svg"
	 xmlns="http://www.w3.org/2000/svg" xmlns:xlink="http://www.w3.org/1999/xlink" x="0px" y="0px" viewBox="0 0 466 337.09"
	 style="enable-background:new 0 0 466 337.09;" xml:space="preserve">
<style type="text/css">
	.st0{fill-rule:evenodd;clip-rule:evenodd;fill:#FEDD00;}
	.st1{fill-rule:evenodd;clip-rule:evenodd;fill:#0064D2;}
	.st2{fill:#0064D2;}
</style>
<sodipodi:namedview  bordercolor="#666666" borderopacity="1.0" id="namedview969" inkscape:current-layer="layer1" inkscape:cx="952.02377" inkscape:cy="248.8605" inkscape:document-units="mm" inkscape:pagecheckerboard="0" inkscape:pageopacity="0.0" inkscape:pageshadow="2" inkscape:window-height="729" inkscape:window-maximized="0" inkscape:window-width="1284" inkscape:window-x="64" inkscape:window-y="30" inkscape:zoom="0.47215208" pagecolor="#ffffff" showgrid="false">
	</sodipodi:namedview>
<g id="layer1" transform="translate(146.82849,-82.758283)" inkscape:groupmode="layer" inkscape:label="Layer 1">
	<path id="path1031" class="st0" d="M91.41,280.61c2.73-0.42,5.35-1.15,7.87-2.31c2.2-1.05,4.41-2.52,6.19-3.99
		c1.78-1.57,3.46-3.46,4.83-5.35c5.35-7.45,6.61-18.47,2.73-26.86c-2.94-6.4-6.92-10.7-13.32-13.95c-1.47-0.73-3.15-1.36-4.93-1.89
		c-0.94-0.21-1.89-0.42-2.83-0.63c-3.04-0.42-5.98-0.42-8.92,0c-2.73,0.42-5.46,1.26-7.76,2.52c-3.78,1.99-6.19,3.78-8.71,6.61
		c-7.13,7.76-8.81,20.25-4.41,29.8c0.84,1.89,3.25,5.88,4.83,7.24c0.31,0.42,0.42,0.42,0.73,0.84c1.89,1.99,4.83,4.2,7.97,5.67
		c2.41,1.05,5.25,1.89,7.87,2.31C86.17,280.92,88.69,280.92,91.41,280.61L91.41,280.61z"/>
	<path id="path1033" class="st1" d="M197.07,256.58c0.73-0.94,1.26-1.36,2.1-2.41c0.63-0.73,1.36-1.57,1.99-2.41
		c2.2-2.52,2.2-2.52,2.2-2.52c0.31-0.42,0.63-0.63,1.05-1.05c0.42-0.52,0.52-0.73,0.94-1.26c5.46-5.46,0.21-10.07-3.67-9.55
		c-2.2,0.42-3.78,2.83-4.93,4.09c-1.36,1.68-2.83,3.25-4.09,4.93c-0.63,0.73-7.34,9.13-8.18,9.44c0-25.28,0-25.28,0-25.28
		c0-3.04,0.31-5.14-1.47-7.03c-3.04-3.46-9.34-1.68-9.44,3.78c-0.21,10.6,0,22.87,0,33.68c0,3.25-0.63,14.06,0.84,16.05
		c1.26,1.99,3.46,2.83,5.88,2.31c2.1-0.42,3.67-2.2,4.09-4.2c0.63-3.88-0.84-6.09,0.94-7.55c1.47-1.36,2.41-3.25,4.2-4.2
		c7.03,10.49,7.03,10.49,7.03,10.49c1.05,1.47,2.52,3.99,3.88,4.83c2.2,1.36,5.04,0.94,6.61-0.63c1.47-1.68,2.52-3.99,1.05-6.5
		L197.07,256.58z"/>
	<path id="path1035" class="st1" d="M220.88,254.59c-0.1-2.62,1.68-5.14,3.04-6.4c5.77-5.56,17.1-1.68,16.89,6.4H220.88z
		 M220.99,262.04c5.25-0.73,24.66,1.05,27.7-0.73c3.67-2.2,2.73-6.71,1.26-10.81c-2.52-7.13-7.97-11.96-15.32-13.22
		c-11.23-1.99-22.56,4.72-24.66,16.89c-3.25,18.15,12.07,29.59,29.59,24.87c3.36-0.94,8.39-2.52,7.76-6.5
		c-0.21-1.89-1.68-3.15-3.57-3.57c-2.1-0.52-3.57,0.73-5.25,1.36C229.8,273.37,222.35,269.8,220.99,262.04L220.99,262.04z"/>
	<path id="path1037" class="st1" d="M130.13,237.91c-1.68,0.1-7.24-0.52-7.24,4.83c0.1,5.25,5.35,4.62,7.24,4.72
		c0.73,4.2-0.52,18.36,0.21,23.71c0.94,7.13,6.82,9.76,14.69,8.71c3.46-0.52,6.4-2.2,5.25-6.19c-1.26-4.72-5.35-2.2-7.76-4.2
		c-2.2-1.89-1.47-7.13-1.47-10.49c0-2.94-0.31-8.92,0.1-11.54c2.1-0.1,8.71,1.05,8.71-4.72s-6.4-4.72-8.71-4.83
		c-0.42-2.41,0.31-5.88-0.42-8.08c-1.57-4.93-8.71-4.51-10.18-0.1C129.81,231.82,130.55,235.6,130.13,237.91L130.13,237.91z"/>
	<path id="path1039" class="st1" d="M257.71,237.91c-1.57,0.1-7.24-0.52-7.13,4.83c0.1,5.25,5.25,4.62,7.13,4.72
		c0.73,4.2-0.42,17.94,0.31,23.71c0.84,7.13,6.71,9.76,14.58,8.71c3.46-0.52,6.4-2.2,5.35-6.29c-1.36-4.62-5.25-2.1-7.87-4.09
		c-2.2-1.57-1.47-7.55-1.47-10.49s-0.31-8.92,0.1-11.54c2.31-0.1,8.81,1.05,8.81-4.72c-0.1-5.88-6.61-4.72-8.81-4.83
		c-0.31-2.31,0.31-6.09-0.31-8.18c-1.57-4.51-8.71-4.72-10.28,0.1C257.39,232.03,258.13,235.49,257.71,237.91L257.71,237.91z"/>
	<path id="path1041" class="st1" d="M155.62,275.36c0.63,3.15,4.83,5.56,8.18,3.36c3.36-2.31,2.52-5.88,2.52-10.7
		c0-3.88,0.31-24.13-0.1-26.23c-0.52-3.46-4.62-5.67-8.29-3.46c-3.25,1.89-2.41,6.5-2.41,10.7
		C155.52,252.91,155.2,273.37,155.62,275.36L155.62,275.36z"/>
	<path id="path1043" class="st2" d="M-66.59,246.72c-2.83-4.09-6.82-5.98-7.24-6.19c-1.36-0.63-4.93-2.2-9.23-1.47
		c-0.94,0.21-3.15,0.63-4.93,2.2c0,0-1.15,1.05-2.1,2.83c-0.21,0.31-0.21,0.42-0.31,0.52c-0.31,0.73-0.31,1.36-0.31,1.89
		c-0.1,0.84-0.1,2.73,0,5.14c0.84-0.73,2.31-1.68,4.41-2.2c0.42-0.1,5.04-0.94,8.5,2.1c1.57,1.36,2.2,2.83,2.52,3.78
		c0.21,0.52,2.41,6.09-0.84,10.7c-1.05,1.47-2.31,2.31-3.04,2.73c-3.36,1.99-8.39,2.2-11.96-0.73c-2.41-1.99-3.15-4.62-3.46-5.77
		c0-13.22,0-26.33-0.1-39.45c-0.42-0.21-1.05-0.42-1.99-0.52c-0.73-0.21-6.5-1.26-8.39,1.36c-0.63,0.84-0.73,1.78-0.73,2.1
		c0,12.69,0,25.28,0,37.98c0.21,1.89,0.84,4.72,2.52,7.55c5.46,8.92,17,9.13,18.26,9.13c0.31,0,0.63,0,0.84,0
		c0.94,0,10.18-0.31,16.16-6.71C-61.03,266.13-61.55,253.85-66.59,246.72L-66.59,246.72z"/>
	<path id="path1045" class="st2" d="M-47.29,254.9c0,2.31,0,4.62,0,7.03l0,0c0,17.31,0,17.31,0,17.31c-10.81,0-10.81,0-10.81,0
		c0-53.51,0-53.51,0-53.51c0-0.31,0.1-1.26,0.73-2.1c1.68-2.2,5.98-1.99,8.39-1.36c0.84,0.1,1.36,0.31,1.78,0.52
		C-47.18,233.5-47.18,244.2-47.29,254.9L-47.29,254.9z"/>
	<path id="path1047" class="st2" d="M-29.66,279.24c-10.81,0-10.81,0-10.81,0c0-35.46,0-35.46,0-35.46c0-0.31,0.1-1.26,0.63-2.1
		c1.68-2.2,6.09-1.99,8.5-1.36c0.73,0.1,1.36,0.31,1.68,0.52C-29.66,259.62-29.66,260.36-29.66,279.24L-29.66,279.24z"/>
	<path id="path1049" class="st2" d="M-28.92,228.25c0-0.84,0-2.83-1.47-4.51c-1.68-1.78-4.09-1.78-4.72-1.89
		c-0.73,0-2.94,0-4.62,1.78c-1.68,1.78-1.57,3.99-1.57,4.62c0,0.73,0.1,2.73,1.68,4.3c1.68,1.78,3.99,1.78,4.62,1.78
		s2.94,0.1,4.62-1.68C-29.03,231.09-28.92,229.2-28.92,228.25L-28.92,228.25z"/>
	<path id="path1051" class="st2" d="M15.25,246.72c-2.83-4.09-6.82-5.98-7.24-6.19c-1.36-0.63-4.93-2.2-9.23-1.47
		c-1.05,0.21-3.25,0.63-4.93,2.2c0,0-1.26,1.05-2.2,2.83c-0.21,0.31-0.21,0.42-0.21,0.52c-0.31,0.73-0.42,1.36-0.42,1.89
		c0,0.84-0.1,2.73,0,5.14c0.84-0.73,2.31-1.68,4.41-2.2c0.52-0.1,5.14-0.94,8.6,2.1c1.47,1.36,2.1,2.83,2.52,3.78
		c0.21,0.52,2.41,6.09-0.84,10.7c-1.15,1.47-2.41,2.31-3.04,2.73c-3.46,1.99-8.5,2.2-11.96-0.73c-2.52-1.99-3.25-4.62-3.46-5.77
		c-0.1-13.22-0.1-26.33-0.1-39.45c-0.52-0.21-1.15-0.42-1.99-0.52c-0.84-0.21-6.5-1.26-8.5,1.36c-0.52,0.84-0.63,1.78-0.63,2.1
		c0,12.69,0,25.28,0,37.98c0.21,1.89,0.73,4.72,2.52,7.55c5.46,8.92,17,9.13,18.26,9.13c0.31,0,0.52,0,0.73,0
		c0.94,0,10.18-0.31,16.26-6.71C20.81,266.13,20.18,253.85,15.25,246.72L15.25,246.72z"/>
	<path id="path1053" class="st2" d="M34.55,254.9c0,2.31,0,4.62,0,7.03l0,0c0,17.31,0,17.31,0,17.31c-10.81,0-10.81,0-10.81,0
		c0-53.51,0-53.51,0-53.51c0-0.31,0.1-1.26,0.63-2.1c1.68-2.2,6.09-1.99,8.5-1.36c0.73,0.1,1.36,0.31,1.78,0.52
		C34.55,233.5,34.55,244.2,34.55,254.9z"/>
	<path id="path1055" class="st2" d="M51.65,279.24c-10.81,0-10.81,0-10.81,0c0-35.46,0-35.46,0-35.46c0-0.31,0.1-1.26,0.73-2.1
		c1.57-2.2,5.98-1.99,8.39-1.36c0.73,0.1,1.36,0.31,1.78,0.52C51.76,259.62,51.65,260.36,51.65,279.24z"/>
	<path id="path1057" class="st2" d="M52.39,228.25c0-0.84,0-2.83-1.47-4.51c-1.68-1.78-3.99-1.78-4.72-1.89
		c-0.73,0-2.94,0-4.62,1.78c-1.68,1.78-1.57,3.99-1.57,4.62c0,0.73,0.21,2.73,1.68,4.3c1.78,1.78,3.99,1.78,4.62,1.78
		c0.63,0,3.04,0.1,4.62-1.68C52.39,231.09,52.39,229.2,52.39,228.25L52.39,228.25z"/>
</g>
</svg>
